<svg width="28" height="28" viewBox="0 0 28 28" fill="none" xmlns="http://www.w3.org/2000/svg">
<rect width="28" height="28" rx="14" fill="black"/>
<path d="M13.7085 10.9345C19.9421 9.93199 22.0057 12.1465 22.2347 13.3517C22.6039 12.8429 22.6112 11.5264 22.3438 10.8286C22.1695 10.3739 21.2597 9.89787 20.8548 9.70256C20.9757 9.19927 20.9346 8.08408 19.8026 7.64966C17.292 6.9795 15.7377 6.06448 15.2743 5.69074C11.874 7.47399 8.20627 7.4006 6.63598 7.00804L8.36827 8.25129L6.98881 8.02604L8.24202 8.87723L7.30122 8.83138C11.345 12.821 20.2417 16.9944 22.2461 17.6715C20.1483 16.4807 14.14 12.894 13.7085 10.9345Z" fill="white"/>
<path d="M19.7275 19.1014L21.6796 19.3825L19.608 19.7287L20.9238 19.9808C19.3806 20.1383 16.1109 20.5437 12.7299 22.3635C12.2626 21.9948 10.6985 21.0966 8.18077 20.4535C7.04417 20.0313 6.99106 18.9167 7.10658 18.4121C6.69959 18.2212 5.7847 17.7549 5.60553 17.3022C5.33057 16.6073 5.32366 15.2908 5.68735 14.7781C5.92237 15.946 7.89802 18.0474 13.7118 17.1875L14.2391 17.1031C14.1857 16.8722 14.0641 16.6086 13.8882 16.3207C13.1514 15.2928 11.1547 13.1907 6.6258 9.39907C9.82762 11.7401 17.4155 17.2457 22.404 18.7574L19.7275 19.1014Z" fill="white"/>
<path d="M19.954 9.58354L18.3728 8.21924C18.0369 7.89641 19.1655 8.46248 19.7204 8.63276C20.2754 8.80303 19.9958 9.1568 19.954 9.58354Z" fill="#C20000"/>
<path d="M8.00867 18.5484L9.60453 19.8956C9.94385 20.2148 8.80922 19.6609 8.25247 19.4966C7.69573 19.3323 7.97149 18.9756 8.00867 18.5484Z" fill="#C20000"/>
</svg>
