<svg width="48" height="48" viewBox="0 0 48 48" fill="none" xmlns="http://www.w3.org/2000/svg">
<rect width="48" height="48" rx="8" fill="#243647"/>
<g clip-path="url(#clip0_375_218)">
<path d="M34.937 27.1404C34.837 27.1974 34.7268 27.2341 34.6127 27.2484C34.4985 27.2628 34.3827 27.2545 34.2717 27.224C34.1608 27.1935 34.0569 27.1415 33.9661 27.0708C33.8754 27.0002 33.7994 26.9123 33.7426 26.8122L31.6645 23.181C30.4563 23.9979 29.1236 24.6133 27.7182 25.0032L28.3602 28.8554C28.3792 28.9688 28.3756 29.0848 28.3497 29.1968C28.3237 29.3088 28.276 29.4146 28.2092 29.5082C28.1423 29.6017 28.0577 29.6812 27.9601 29.742C27.8626 29.8029 27.754 29.8439 27.6405 29.8627C27.5939 29.8703 27.5467 29.8744 27.4995 29.8747C27.2925 29.8744 27.0923 29.8007 26.9345 29.6668C26.7767 29.5328 26.6715 29.3472 26.6376 29.143L26.0065 25.3608C24.6756 25.5461 23.3255 25.5461 21.9946 25.3608L21.3635 29.143C21.3296 29.3476 21.224 29.5335 21.0658 29.6675C20.9075 29.8015 20.7068 29.8749 20.4995 29.8747C20.4511 29.8745 20.4028 29.8705 20.3551 29.8627C20.2417 29.8439 20.1331 29.8029 20.0355 29.742C19.9379 29.6812 19.8533 29.6017 19.7865 29.5082C19.7196 29.4146 19.6719 29.3088 19.646 29.1968C19.62 29.0848 19.6164 28.9688 19.6354 28.8554L20.2807 25.0032C18.8759 24.6121 17.5439 23.9956 16.3366 23.1777L14.2651 26.8122C14.2076 26.9123 14.131 27.0002 14.0396 27.0707C13.9482 27.1412 13.8439 27.193 13.7324 27.2232C13.621 27.2533 13.5048 27.2612 13.3903 27.2465C13.2758 27.2317 13.1653 27.1945 13.0652 27.1371C12.9651 27.0796 12.8773 27.003 12.8068 26.9116C12.7363 26.8202 12.6845 26.7159 12.6543 26.6044C12.6242 26.493 12.6162 26.3768 12.631 26.2623C12.6458 26.1478 12.6829 26.0373 12.7404 25.9372L14.9279 22.1091C14.1595 21.4453 13.453 20.7131 12.817 19.9216C12.7376 19.833 12.6772 19.7292 12.6393 19.6166C12.6015 19.5039 12.5869 19.3846 12.5967 19.2661C12.6064 19.1476 12.6402 19.0324 12.696 18.9274C12.7518 18.8224 12.8284 18.7298 12.9211 18.6554C13.0138 18.581 13.1207 18.5263 13.2353 18.4946C13.3499 18.4628 13.4697 18.4548 13.5875 18.4709C13.7053 18.4871 13.8186 18.527 13.9204 18.5884C14.0222 18.6498 14.1105 18.7312 14.1798 18.8279C15.9954 21.0744 19.1716 23.7497 23.9995 23.7497C28.8273 23.7497 32.0035 21.0711 33.8191 18.8279C33.8876 18.7293 33.9757 18.6458 34.0778 18.5827C34.18 18.5196 34.294 18.4782 34.4128 18.4611C34.5316 18.444 34.6527 18.4515 34.7685 18.4831C34.8843 18.5148 34.9924 18.57 35.0859 18.6452C35.1795 18.7204 35.2566 18.8141 35.3124 18.9203C35.3682 19.0266 35.4016 19.1433 35.4104 19.263C35.4192 19.3827 35.4032 19.503 35.3636 19.6163C35.3239 19.7296 35.2613 19.8335 35.1798 19.9216C34.5437 20.7131 33.8372 21.4453 33.0688 22.1091L35.2563 25.9372C35.3151 26.037 35.3534 26.1475 35.3691 26.2622C35.3848 26.3769 35.3776 26.4936 35.3479 26.6055C35.3182 26.7174 35.2666 26.8223 35.196 26.9141C35.1255 27.0059 35.0374 27.0828 34.937 27.1404Z" fill="white"/>
</g>
<defs>
<clipPath id="clip0_375_218">
<rect width="24" height="12" fill="white" transform="translate(12 18)"/>
</clipPath>
</defs>
</svg>
