<svg width="56" height="55" viewBox="0 0 56 55" fill="none" xmlns="http://www.w3.org/2000/svg">
<g clip-path="url(#clip0_535_80)">
<rect width="56" height="56" rx="8" fill="#FAFAFA"/>
<path fill-rule="evenodd" clip-rule="evenodd" d="M21.4982 11.164C18.3122 12.922 13.9412 17.268 12.4092 20.2C10.7182 23.436 10.5582 31.275 12.1202 34.316C13.7792 37.545 18.1242 41.983 21.1982 43.589C24.6682 45.402 32.3282 45.402 35.7982 43.589C38.8722 41.983 43.2172 37.545 44.8762 34.316C45.4932 33.114 45.9982 30.047 45.9982 27.5C45.9982 24.953 45.4932 21.886 44.8762 20.684C43.2172 17.455 38.8722 13.017 35.7982 11.411C32.6032 9.74197 24.3342 9.59897 21.4982 11.164ZM23.3702 16.942C20.0662 18.423 18.9062 19.675 17.5552 23.212C15.9712 27.36 15.9712 27.892 17.5562 31.854C19.4482 36.581 23.3492 39.2 28.4982 39.2C33.6472 39.2 37.5482 36.581 39.4402 31.854C41.0172 27.913 41.0192 27.343 39.4732 23.295C36.9032 16.566 30.1512 13.902 23.3702 16.942ZM24.4152 24.355C24.1042 25.167 23.9952 27.107 24.1732 28.666C24.4702 31.252 24.8482 31.5 28.4982 31.5H32.4982V27.5C32.4982 23.598 32.4062 23.492 28.7402 23.189C26.1322 22.973 24.8092 23.33 24.4152 24.355Z" fill="black" fill-opacity="0.361"/>
<path fill-rule="evenodd" clip-rule="evenodd" d="M21.422 11.8955C5.919 18.9375 8.961 41.4355 25.847 44.6255C33.573 46.0855 42.646 40.2535 45.03 32.2965C47.417 24.3285 43.744 16.1455 36.031 12.2495C30.649 9.53053 26.834 9.43853 21.422 11.8955ZM22.3 16.9595C16.23 20.6595 14.374 27.8195 17.961 33.7005C22.955 41.8915 34.047 41.8915 39.041 33.7005C41.523 29.6305 41.523 25.3685 39.041 21.2985C35.341 15.2285 28.181 13.3725 22.3 16.9595ZM25.001 27.4995C25.001 30.8325 25.168 30.9995 28.501 30.9995C31.834 30.9995 32.001 30.8325 32.001 27.4995C32.001 24.1665 31.834 23.9995 28.501 23.9995C25.168 23.9995 25.001 24.1665 25.001 27.4995Z" fill="#0052FF"/>
</g>
<defs>
<clipPath id="clip0_535_80">
<rect width="56" height="55" fill="white"/>
</clipPath>
</defs>
</svg>
