<svg width="28" height="29" viewBox="0 0 28 29" fill="none" xmlns="http://www.w3.org/2000/svg">
<g clip-path="url(#clip0_387_350)">
<path fill-rule="evenodd" clip-rule="evenodd" d="M22.25 5.5H10.25C9.83579 5.5 9.5 5.83579 9.5 6.25V10H5.75C5.33579 10 5 10.3358 5 10.75V22.75C5 23.1642 5.33579 23.5 5.75 23.5H17.75C18.1642 23.5 18.5 23.1642 18.5 22.75V19H22.25C22.6642 19 23 18.6642 23 18.25V6.25C23 5.83579 22.6642 5.5 22.25 5.5ZM17 22H6.5V11.5H17V22ZM21.5 17.5H18.5V10.75C18.5 10.3358 18.1642 10 17.75 10H11V7H21.5V17.5Z" fill="white"/>
</g>
<defs>
<clipPath id="clip0_387_350">
<rect width="24" height="24" fill="white" transform="translate(2 2.5)"/>
</clipPath>
</defs>
</svg>
