<svg width="56" height="56" viewBox="0 0 56 56" fill="none" xmlns="http://www.w3.org/2000/svg">
<rect width="56" height="56" rx="8" fill="#FAFAFA"/>
<path fill-rule="evenodd" clip-rule="evenodd" d="M21.096 13.199L15.9766 15.268V28.499C15.9766 40.558 16.1638 41.975 18.0906 44.486C20.0272 47.012 25.2071 50 27.6469 50C28.3041 50 28.6532 43.238 28.6532 30.5C28.6532 15.532 28.3694 11.015 27.4343 11.065C26.7644 11.101 23.9121 12.061 21.096 13.199ZM30.6034 22.5C30.6034 30.19 30.9584 34 31.6751 34C34.2835 34 39.7667 30.396 41.441 27.58C42.5321 25.745 43.2742 22.634 43.2761 19.884L43.28 15.268L37.5726 13.134C34.4337 11.96 31.5815 11 31.2343 11C30.8872 11 30.6034 16.175 30.6034 22.5Z" fill="#FF5F5F"/>
<path fill-rule="evenodd" clip-rule="evenodd" d="M30.6034 22.1794V33.2504L33.7726 32.6274C38.2484 31.7484 42.0221 27.1144 42.8451 21.4884C43.2186 18.9374 43.1279 16.4444 42.6443 15.9484C42.1596 15.4514 39.2528 14.1604 36.1841 13.0774L30.6034 11.1084V22.1794ZM20.6084 13.7714L15.9766 15.3514V27.2744C15.9766 40.6374 17.0804 44.4654 21.7493 47.2944C27.6771 50.8854 27.6781 50.8824 27.6781 30.5004C27.6781 16.3164 27.3933 12.0224 26.4591 12.0964C25.7892 12.1484 23.1564 12.9024 20.6084 13.7714Z" fill="#FF5F5F"/>
</svg>
