<svg width="56" height="56" viewBox="0 0 56 56" fill="none" xmlns="http://www.w3.org/2000/svg">
<rect width="56" height="56" rx="8" fill="#FAFAFA"/>
<g clip-path="url(#clip0_388_480)">
<path d="M43.9915 10L29.0586 22.5752L31.8355 15.1642L43.9915 10Z" fill="#E17726"/>
<path d="M10.8438 10.0156L22.9672 15.166L25.604 22.6742L10.8438 10.0156Z" fill="#E27625"/>
<path d="M37.9828 36.7432L44.5828 36.8861L42.2762 45.8043L34.2227 43.2806L37.9828 36.7432Z" fill="#E27625"/>
<path d="M16.8131 36.7432L20.5592 43.2807L12.5192 45.8045L10.2266 36.8861L16.8131 36.7432Z" fill="#E27625"/>
<path d="M25.2426 20.7607L25.5124 30.6755L17.4414 30.2576L19.7371 26.3158L19.7662 26.2778L25.2426 20.7607Z" fill="#E27625"/>
<path d="M29.4737 20.6494L35.0337 26.2774L35.0624 26.3152L37.3582 30.2569L29.2891 30.6748L29.4737 20.6494Z" fill="#E27625"/>
<path d="M20.7982 36.7734L25.2052 40.6814L20.0859 43.4944L20.7982 36.7734Z" fill="#E27625"/>
<path d="M34.0051 36.7725L34.7026 43.494L29.5977 40.6808L34.0051 36.7725Z" fill="#E27625"/>
<path d="M29.707 40.3125L34.8874 43.1673L30.0686 45.7738L30.1186 44.0511L29.707 40.3125Z" fill="#D5BFB2"/>
<path d="M25.0876 40.3135L24.6921 44.0226L24.7246 45.7714L19.8945 43.167L25.0876 40.3135Z" fill="#D5BFB2"/>
<path d="M23.599 31.9697L24.9527 35.2076L20.3438 33.671L23.599 31.9697Z" fill="#233447"/>
<path d="M31.2049 31.9697L34.4754 33.6706L29.8516 35.2068L31.2049 31.9697Z" fill="#233447"/>
<path d="M21.1521 36.7402L20.4071 43.7086L16.4141 36.8926L21.1521 36.7402Z" fill="#CC6228"/>
<path d="M33.6484 36.7402L38.3866 36.8926L34.3786 43.7088L33.6484 36.7402Z" fill="#CC6228"/>
<path d="M37.4758 29.8633L34.0276 33.8629L31.3691 32.4802L30.0962 35.5256L29.2617 30.2886L37.4758 29.8633Z" fill="#CC6228"/>
<path d="M17.3242 29.8633L25.5398 30.2887L24.7053 35.5256L23.4322 32.4806L20.7876 33.863L17.3242 29.8633Z" fill="#CC6228"/>
<path d="M17.0898 29.043L20.9912 33.5484L21.1264 37.9964L17.0898 29.043Z" fill="#E27525"/>
<path d="M37.7156 29.0352L33.6719 38.0046L33.8241 33.5487L37.7156 29.0352Z" fill="#E27525"/>
<path d="M25.349 29.3174L25.506 30.4422L25.894 33.2442L25.6445 41.8503L24.4652 34.937L24.4648 34.8655L25.349 29.3174Z" fill="#E27525"/>
<path d="M29.4493 29.3018L30.3358 34.8654L30.3354 34.9368L29.1531 41.8675L29.1063 40.134L28.9219 33.1931L29.4493 29.3018Z" fill="#E27525"/>
<path d="M34.1693 33.3682L34.0373 37.2327L29.9218 40.882L29.0898 40.213L30.0224 34.746L34.1693 33.3682Z" fill="#F5841F"/>
<path d="M20.6484 33.3682L24.781 34.7461L25.7136 40.2129L24.8816 40.8819L20.7659 37.2323L20.6484 33.3682Z" fill="#F5841F"/>
<path d="M19.1094 42.3135L24.3747 45.1528L24.3524 43.9404L24.7929 43.5003H30.0041L30.4606 43.9389L30.427 45.1505L35.6589 42.3207L33.1131 44.715L30.0346 47.1214H24.7508L21.6743 44.7051L19.1094 42.3135Z" fill="#C0AC9D"/>
<path d="M29.3332 39.9346L30.0776 40.5331L30.5139 44.4945L29.8826 43.8878H24.924L24.3047 44.5067L24.7266 40.5334L25.4713 39.9346H29.3332Z" fill="#161616"/>
<path d="M43.0072 10.3477L44.7997 16.4678L43.6802 22.6559L44.4774 23.3558L43.3987 24.2924L44.2093 25.005L43.1359 26.1176L43.7949 26.6608L42.0459 28.9855L34.8723 26.6084L34.8101 26.5705L29.6406 21.6074L43.0072 10.3477Z" fill="#763E1A"/>
<path d="M11.7925 10.3477L25.1591 21.6074L19.9896 26.5705L19.9275 26.6084L12.7537 28.9855L11.0048 26.6608L11.6633 26.118L10.5903 25.005L11.3995 24.2932L10.3047 23.3539L11.1319 22.6536L10 16.4681L11.7925 10.3477Z" fill="#763E1A"/>
<path d="M34.5232 26.0889L42.1242 28.6075L44.5936 37.2693L38.0788 37.2693L33.5898 37.3338L36.8544 30.0918L34.5232 26.0889Z" fill="#F5841F"/>
<path d="M20.2793 26.0889L17.9477 30.0918L21.2127 37.3338L16.726 37.2693H10.2227L12.6782 28.6075L20.2793 26.0889Z" fill="#F5841F"/>
<path d="M32.2103 15.123L30.0843 21.6581L29.6331 30.4863L29.4605 33.2533L29.4468 40.3219H25.3534L25.3401 33.2666L25.1669 30.4839L24.7155 21.6581L22.5898 15.123H32.2103Z" fill="#F5841F"/>
</g>
<defs>
<clipPath id="clip0_388_480">
<rect width="35" height="35" fill="white" transform="translate(10 10)"/>
</clipPath>
</defs>
</svg>
