<svg width="48" height="48" viewBox="0 0 48 48" fill="none" xmlns="http://www.w3.org/2000/svg">
<rect width="48" height="48" rx="8" fill="#243647"/>
<path d="M33.2565 22.962C33.7305 23.582 33.7305 24.419 33.2565 25.038C31.7635 26.987 28.1815 31 23.9995 31C19.8175 31 16.2355 26.987 14.7425 25.038C14.5119 24.7411 14.3867 24.3759 14.3867 24C14.3867 23.6241 14.5119 23.2589 14.7425 22.962C16.2355 21.013 19.8175 17 23.9995 17C28.1815 17 31.7635 21.013 33.2565 22.962Z" stroke="white" stroke-width="2" stroke-linecap="round" stroke-linejoin="round"/>
<path d="M24 27C25.6569 27 27 25.6569 27 24C27 22.3431 25.6569 21 24 21C22.3431 21 21 22.3431 21 24C21 25.6569 22.3431 27 24 27Z" stroke="white" stroke-width="2" stroke-linecap="round" stroke-linejoin="round"/>
</svg>
