<svg width="56" height="56" viewBox="0 0 56 56" fill="none" xmlns="http://www.w3.org/2000/svg">
<rect width="56" height="56" rx="8" fill="#FAFAFA"/>
<g clip-path="url(#clip0_389_503)">
<path d="M11.9698 46.9755C17.3295 46.9755 21.3573 42.3143 23.7609 38.6309C23.4686 39.4458 23.3063 40.2607 23.3063 41.0431C23.3063 43.1944 24.5405 44.7265 26.9768 44.7265C30.3224 44.7265 33.8956 41.7928 35.7471 38.6309C35.6172 39.0873 35.5522 39.5111 35.5522 39.9022C35.5522 41.4016 36.3968 42.3469 38.1182 42.3469C43.5429 42.3469 49 32.7311 49 24.3213C49 17.7695 45.6867 12 37.3713 12C22.754 12 7 29.8627 7 41.4016C7 45.9325 9.43619 46.9755 11.9698 46.9755ZM32.3363 23.6042C32.3363 21.9744 33.2459 20.8335 34.5777 20.8335C35.877 20.8335 36.7865 21.9744 36.7865 23.6042C36.7865 25.234 35.877 26.4074 34.5777 26.4074C33.2459 26.4074 32.3363 25.234 32.3363 23.6042ZM39.2877 23.6042C39.2877 21.9744 40.1972 20.8335 41.529 20.8335C42.8282 20.8335 43.7377 21.9744 43.7377 23.6042C43.7377 25.234 42.8282 26.4074 41.529 26.4074C40.1972 26.4074 39.2877 25.234 39.2877 23.6042Z" fill="#AB9FF2"/>
</g>
<defs>
<clipPath id="clip0_389_503">
<rect width="47.6696" height="38" fill="white" transform="translate(5 9)"/>
</clipPath>
</defs>
</svg>
