<svg width="28" height="28" viewBox="0 0 28 28" fill="none" xmlns="http://www.w3.org/2000/svg">
<g clip-path="url(#clip0_346_36)">
<path fill-rule="evenodd" clip-rule="evenodd" d="M23 14C23 14.4142 22.6642 14.75 22.25 14.75H14.75V22.25C14.75 22.6642 14.4142 23 14 23C13.5858 23 13.25 22.6642 13.25 22.25V14.75H5.75C5.33579 14.75 5 14.4142 5 14C5 13.5858 5.33579 13.25 5.75 13.25H13.25V5.75C13.25 5.33579 13.5858 5 14 5C14.4142 5 14.75 5.33579 14.75 5.75V13.25H22.25C22.6642 13.25 23 13.5858 23 14V14Z" fill="white"/>
</g>
<defs>
<clipPath id="clip0_346_36">
<rect width="24" height="24" fill="white" transform="translate(2 2)"/>
</clipPath>
</defs>
</svg>
