<svg width="48" height="48" viewBox="0 0 48 48" fill="none" xmlns="http://www.w3.org/2000/svg">
<rect width="48" height="48" rx="8" fill="#243647"/>
<path d="M31.8989 24.6594C31.7386 24.4769 31.6502 24.2423 31.6502 23.9994C31.6502 23.7565 31.7386 23.5219 31.8989 23.3394L33.1789 21.8994C33.32 21.7421 33.4076 21.5441 33.4291 21.3339C33.4507 21.1237 33.4051 20.9121 33.2989 20.7294L31.2989 17.2694C31.1938 17.0869 31.0338 16.9423 30.8417 16.8561C30.6495 16.7699 30.4351 16.7466 30.2289 16.7894L28.3489 17.1694C28.1097 17.2188 27.8607 17.179 27.6488 17.0574C27.4369 16.9358 27.2769 16.7409 27.1989 16.5094L26.5889 14.6794C26.5218 14.4808 26.394 14.3083 26.2235 14.1862C26.0531 14.0642 25.8486 13.9989 25.6389 13.9994H21.6389C21.4209 13.988 21.2051 14.0483 21.0245 14.1711C20.8439 14.2939 20.7085 14.4724 20.6389 14.6794L20.0789 16.5094C20.0009 16.7409 19.8409 16.9358 19.629 17.0574C19.4172 17.179 19.1681 17.2188 18.9289 17.1694L16.9989 16.7894C16.8035 16.7618 16.6042 16.7926 16.4263 16.878C16.2483 16.9635 16.0996 17.0996 15.9989 17.2694L13.9989 20.7294C13.8901 20.9101 13.8411 21.1205 13.8591 21.3306C13.8771 21.5408 13.961 21.7398 14.0989 21.8994L15.3689 23.3394C15.5292 23.5219 15.6177 23.7565 15.6177 23.9994C15.6177 24.2423 15.5292 24.4769 15.3689 24.6594L14.0989 26.0994C13.961 26.259 13.8771 26.458 13.8591 26.6682C13.8411 26.8783 13.8901 27.0888 13.9989 27.2694L15.9989 30.7294C16.104 30.9119 16.264 31.0565 16.4562 31.1427C16.6483 31.2289 16.8627 31.2522 17.0689 31.2094L18.9489 30.8294C19.1881 30.78 19.4372 30.8198 19.649 30.9414C19.8609 31.063 20.0209 31.2579 20.0989 31.4894L20.7089 33.3194C20.7785 33.5264 20.9139 33.7049 21.0945 33.8277C21.2751 33.9505 21.4909 34.0108 21.7089 33.9994H25.7089C25.9186 33.9999 26.1231 33.9346 26.2935 33.8126C26.464 33.6905 26.5918 33.518 26.6589 33.3194L27.2689 31.4894C27.3469 31.2579 27.5069 31.063 27.7188 30.9414C27.9307 30.8198 28.1797 30.78 28.4189 30.8294L30.2989 31.2094C30.5051 31.2522 30.7195 31.2289 30.9117 31.1427C31.1038 31.0565 31.2638 30.9119 31.3689 30.7294L33.3689 27.2694C33.4751 27.0867 33.5207 26.8751 33.4991 26.6649C33.4776 26.4547 33.39 26.2567 33.2489 26.0994L31.8989 24.6594ZM30.4089 25.9994L31.2089 26.8994L29.9289 29.1194L28.7489 28.8794C28.0287 28.7322 27.2795 28.8545 26.6435 29.2232C26.0075 29.5919 25.5291 30.1812 25.2989 30.8794L24.9189 31.9994H22.3589L21.9989 30.8594C21.7688 30.1612 21.2903 29.5719 20.6543 29.2032C20.0183 28.8345 19.2691 28.7122 18.5489 28.8594L17.3689 29.0994L16.0689 26.8894L16.8689 25.9894C17.3609 25.4394 17.6329 24.7273 17.6329 23.9894C17.6329 23.2515 17.3609 22.5394 16.8689 21.9894L16.0689 21.0894L17.3489 18.8894L18.5289 19.1294C19.2491 19.2766 19.9983 19.1543 20.6343 18.7856C21.2703 18.4169 21.7488 17.8276 21.9789 17.1294L22.3589 15.9994H24.9189L25.2989 17.1394C25.5291 17.8376 26.0075 18.4269 26.6435 18.7956C27.2795 19.1643 28.0287 19.2866 28.7489 19.1394L29.9289 18.8994L31.2089 21.1194L30.4089 22.0194C29.9225 22.5682 29.6539 23.2761 29.6539 24.0094C29.6539 24.7427 29.9225 25.4506 30.4089 25.9994ZM23.6389 19.9994C22.8478 19.9994 22.0744 20.234 21.4166 20.6735C20.7588 21.1131 20.2462 21.7378 19.9434 22.4687C19.6407 23.1996 19.5614 24.0038 19.7158 24.7798C19.8701 25.5557 20.2511 26.2684 20.8105 26.8278C21.3699 27.3872 22.0826 27.7682 22.8586 27.9225C23.6345 28.0769 24.4387 27.9977 25.1697 27.6949C25.9006 27.3922 26.5253 26.8795 26.9648 26.2217C27.4043 25.5639 27.6389 24.7905 27.6389 23.9994C27.6389 22.9385 27.2175 21.9211 26.4673 21.171C25.7172 20.4208 24.6998 19.9994 23.6389 19.9994ZM23.6389 25.9994C23.2434 25.9994 22.8567 25.8821 22.5278 25.6623C22.1989 25.4426 21.9425 25.1302 21.7912 24.7648C21.6398 24.3993 21.6002 23.9972 21.6773 23.6092C21.7545 23.2213 21.945 22.8649 22.2247 22.5852C22.5044 22.3055 22.8608 22.115 23.2487 22.0378C23.6367 21.9607 24.0388 22.0003 24.4043 22.1516C24.7697 22.303 25.0821 22.5594 25.3019 22.8883C25.5216 23.2172 25.6389 23.6038 25.6389 23.9994C25.6389 24.5298 25.4282 25.0385 25.0531 25.4136C24.6781 25.7887 24.1694 25.9994 23.6389 25.9994Z" fill="white"/>
</svg>
