<svg width="48" height="44" viewBox="0 0 48 44" fill="none" xmlns="http://www.w3.org/2000/svg">
<rect width="48" height="44" rx="8" fill="#243647"/>
<path d="M23 18C23 16.9391 23.4214 15.9217 24.1716 15.1716C24.9217 14.4214 25.9391 14 27 14C28.0609 14 29.0783 14.4214 29.8284 15.1716C30.5786 15.9217 31 16.9391 31 18V26H34L30 30L26 26H29V18C29 17.4696 28.7893 16.9609 28.4142 16.5858C28.0391 16.2107 27.5304 16 27 16C26.4696 16 25.9609 16.2107 25.5858 16.5858C25.2107 16.9609 25 17.4696 25 18V26C25 27.0609 24.5786 28.0783 23.8284 28.8284C23.0783 29.5786 22.0609 30 21 30C19.9391 30 18.9217 29.5786 18.1716 28.8284C17.4214 28.0783 17 27.0609 17 26V18H14L18 14L22 18H19V26C19 26.5304 19.2107 27.0391 19.5858 27.4142C19.9609 27.7893 20.4696 28 21 28C21.5304 28 22.0391 27.7893 22.4142 27.4142C22.7893 27.0391 23 26.5304 23 26V18Z" fill="white"/>
</svg>
