<svg width="327" height="39" viewBox="0 0 327 39" fill="none" xmlns="http://www.w3.org/2000/svg">
<g clip-path="url(#clip0_626_97)">
<rect width="39" height="39" transform="translate(147)" fill="#1B222A"/>
<path d="M164.55 11.7004C164.55 9.6317 165.372 7.64774 166.835 6.18496C168.297 4.72217 170.281 3.90039 172.35 3.90039C174.419 3.90039 176.403 4.72217 177.865 6.18496C179.328 7.64774 180.15 9.6317 180.15 11.7004V27.3004H186L178.2 35.1004L170.4 27.3004H176.25V11.7004C176.25 10.666 175.839 9.67407 175.108 8.94267C174.376 8.21128 173.384 7.80039 172.35 7.80039C171.316 7.80039 170.324 8.21128 169.592 8.94267C168.861 9.67407 168.45 10.666 168.45 11.7004V27.3004C168.45 29.3691 167.628 31.353 166.165 32.8158C164.703 34.2786 162.719 35.1004 160.65 35.1004C158.581 35.1004 156.597 34.2786 155.135 32.8158C153.672 31.353 152.85 29.3691 152.85 27.3004V11.7004H147L154.8 3.90039L162.6 11.7004H156.75V27.3004C156.75 28.3347 157.161 29.3267 157.892 30.0581C158.624 30.7895 159.616 31.2004 160.65 31.2004C161.684 31.2004 162.676 30.7895 163.408 30.0581C164.139 29.3267 164.55 28.3347 164.55 27.3004V11.7004Z" fill="#6F64EC"/>
</g>
<line x1="186.004" y1="18.5" x2="327.003" y2="19.5144" stroke="#262D35"/>
<line x1="0.00340128" y1="18.5" x2="147.003" y2="19.5" stroke="#313840"/>
<defs>
<clipPath id="clip0_626_97">
<rect width="39" height="39" fill="white" transform="translate(147)"/>
</clipPath>
</defs>
</svg>
